<svg xmlns="http://www.w3.org/2000/svg" id="spr_form" viewBox="0 0 286 24"><g id="spr_form-2" data-name="spr_form"><g id="spr_form-3" data-name="spr_form"><g id="spr_form-4" data-name="spr_form"><rect id="사각형_7" data-name="사각형 7" width="18" height="18" transform="translate(16)" fill="gray" opacity="0"></rect><path id="패스_8" data-name="패스 8" d="M200,603a1,1,0,0,1-.711-.3l-5.993-6.058a4.51,4.51,0,0,1,0-6.328,4.415,4.415,0,0,1,6.29,0l.413.418.412-.417a4.416,4.416,0,0,1,6.292,0,4.51,4.51,0,0,1,0,6.328l-3.558,3.6c-.655.66-2.434,2.46-2.434,2.46a.994.994,0,0,1-.711.3Zm-3.558-12a2.4,2.4,0,0,0-1.723.724,2.5,2.5,0,0,0,0,3.514L200,600.577l1.726-1.743,3.557-3.6a2.5,2.5,0,0,0,0-3.514,2.47,2.47,0,0,0-3.448,0l-1.122,1.134a1.028,1.028,0,0,1-1.423,0l-1.123-1.135a2.41,2.41,0,0,0-1.722-.719Z" transform="translate(-175.003 -586.995)" fill="#b9bcc0"></path><rect id="사각형_8" data-name="사각형 8" width="16" height="16" fill="#cfcfcf" opacity="0"></rect><path id="패스_9" data-name="패스 9" d="M264,568H254a1.927,1.927,0,0,0-2,1.856v10.288A1.927,1.927,0,0,0,254,582h10a1.928,1.928,0,0,0,2-1.856V569.856A1.928,1.928,0,0,0,264,568Zm-10.133,2.022A.407.407,0,0,1,254,570h10a.414.414,0,0,1,.133.022V572H253.867ZM264,580H254a.407.407,0,0,1-.133-.022V574h10.267v5.978A.415.415,0,0,1,264,580Z" transform="translate(-251 -566.995)" fill="#82878e"></path><g id="그룹_1070" data-name="그룹 1070"><rect id="사각형_9" data-name="사각형 9" width="24" height="22" transform="translate(52)" fill="gray" opacity="0"></rect><g id="그룹_1069" data-name="그룹 1069"><path id="패스_10" data-name="패스 10" d="M196.893,92.531a1.107,1.107,0,0,1-.733-.27l-8.233-7.194a5.788,5.788,0,0,1-1.869-6.619,6.234,6.234,0,0,1,5.891-3.917,6.508,6.508,0,0,1,4.729,2,6.507,6.507,0,0,1,4.728-2,6.055,6.055,0,0,1,6.268,5.794,5.645,5.645,0,0,1-2.223,4.722l-7.806,7.2A1.112,1.112,0,0,1,196.893,92.531ZM191.949,76.5a3.994,3.994,0,0,0-4.134,3.824,3.878,3.878,0,0,0,1.6,3.329l7.459,6.519,7.073-6.52a3.952,3.952,0,0,0,.37-6.039,4.3,4.3,0,0,0-6.664,1.125,1.1,1.1,0,0,1-1.939,0A4.179,4.179,0,0,0,191.949,76.5Z" transform="translate(-132.682 -72.526)" fill="#b9bcc0"></path></g></g><rect id="사각형_10" data-name="사각형 10" width="18" height="18" transform="translate(34)" fill="#cfcfcf" opacity="0"></rect><path id="패스_11" data-name="패스 11" d="M200,603a1,1,0,0,1-.711-.3l-5.993-6.058a4.51,4.51,0,0,1,0-6.328,4.415,4.415,0,0,1,6.29,0l.413.418.412-.417a4.416,4.416,0,0,1,6.292,0,4.51,4.51,0,0,1,0,6.328l-3.558,3.6c-.655.66-2.434,2.46-2.434,2.46a.994.994,0,0,1-.711.3Z" transform="translate(-157.003 -586.995)" fill="#ff5644"></path><g id="그룹_1071" data-name="그룹 1071"><rect id="사각형_11" data-name="사각형 11" width="24" height="22" transform="translate(76)" fill="#dcdcdc" opacity="0"></rect><path id="패스_12" data-name="패스 12" d="M203,606.994a1.424,1.424,0,0,1-.978-.386l-8.241-7.786a5.53,5.53,0,0,1,0-8.133,6.373,6.373,0,0,1,8.649,0l.568.537.567-.536a6.374,6.374,0,0,1,8.652,0,5.53,5.53,0,0,1,0,8.133l-4.892,4.627c-.9.848-3.347,3.162-3.347,3.162A1.416,1.416,0,0,1,203,607Z" transform="translate(-115.003 -586.995)" fill="#ff5644"></path></g><rect id="사각형_12" data-name="사각형 12" width="18" height="18" transform="translate(100)" fill="#cfcfcf" opacity="0"></rect><g id="그룹_1059" data-name="그룹 1059" transform="translate(101 1)"><rect id="사각형_13" data-name="사각형 13" width="16" height="16" fill="none"></rect><g id="그룹_1058" data-name="그룹 1058" transform="translate(17454 23594)"><g id="타원_89" data-name="타원 89" transform="translate(-17454 -23594)" fill="none" stroke="#373a3c" stroke-width="2"><circle cx="8" cy="8" r="8" stroke="none"></circle><circle cx="8" cy="8" r="7" fill="none"></circle></g><line id="선_27" data-name="선 27" y2="3" transform="translate(-17446.209 -23589.125)" fill="none" stroke="#373a3c" stroke-linecap="round" stroke-width="2"></line><line id="선_28" data-name="선 28" x2="2" transform="translate(-17446.164 -23586)" fill="none" stroke="#373a3c" stroke-linecap="round" stroke-width="2"></line></g></g><rect id="사각형_14" data-name="사각형 14" width="18" height="18" transform="translate(122)" fill="#e2e2e2" opacity="0"></rect><g id="그룹_1061" data-name="그룹 1061" transform="translate(123 1)"><rect id="사각형_15" data-name="사각형 15" width="16" height="16" fill="none" opacity="0.1"></rect><g id="그룹_1060" data-name="그룹 1060" transform="translate(-271.131 -614.012)"><path id="패스_13" data-name="패스 13" d="M286.707,619.493l-5.2-5.2a1.029,1.029,0,0,0-1.414,0l-4.271,4.272-4.052,1.572a1,1,0,0,0-.345,1.639l3.192,3.193,1.414,1.414,3.194,3.193a1,1,0,0,0,.707.293,1.033,1.033,0,0,0,.206-.021,1,1,0,0,0,.726-.618l1.571-4.051,4.272-4.272A1,1,0,0,0,286.707,619.493Z" fill="none"></path><path id="패스_14" data-name="패스 14" d="M280.8,615.707l-3.917,3.919-.224.223-.294.114-3.337,1.295,2.65,2.65,1.413,1.414,2.652,2.651,1.293-3.336.115-.3.223-.224,3.919-3.918-4.493-4.493m0-1.695a1,1,0,0,1,.707.281l5.2,5.2a1,1,0,0,1,0,1.414l-4.272,4.272-1.571,4.051a1,1,0,0,1-.726.618,1.038,1.038,0,0,1-.206.021,1,1,0,0,1-.707-.293l-3.194-3.193-1.414-1.414-3.192-3.193a1,1,0,0,1,.345-1.639l4.052-1.572,4.271-4.272A1,1,0,0,1,280.8,614.012Z" fill="#b9bcc0"></path></g><line id="선_29" data-name="선 29" y1="3" x2="3" transform="translate(1.5 11.5)" fill="none" stroke="#b9bcc0" stroke-linecap="round" stroke-width="1.5"></line></g><rect id="사각형_16" data-name="사각형 16" width="18" height="18" transform="translate(140)" fill="#d2d2d2" opacity="0"></rect><g id="그룹_1062" data-name="그룹 1062" transform="translate(141 1)"><rect id="사각형_17" data-name="사각형 17" width="16" height="16" fill="none" opacity="0.1"></rect><path id="패스_15" data-name="패스 15" d="M286.836,619.542l-5.243-5.247a1.037,1.037,0,0,0-1.426,0l-4.306,4.31-4.085,1.586a1.008,1.008,0,0,0-.348,1.654l3.218,3.222-3.048,3.049a1.009,1.009,0,1,0,1.426,1.427l3.048-3.049,3.22,3.222a1,1,0,0,0,.713.3,1.045,1.045,0,0,0,.208-.021,1.008,1.008,0,0,0,.732-.624l1.584-4.087,4.307-4.31a1.008,1.008,0,0,0,0-1.432Z" transform="translate(-271.131 -614.012)" fill="#778cea"></path></g><rect id="사각형_18" data-name="사각형 18" width="18" height="18" transform="translate(158)" fill="#d2d2d2" opacity="0"></rect><g id="그룹_1063" data-name="그룹 1063" transform="translate(159 1)"><rect id="사각형_19" data-name="사각형 19" width="16" height="16" fill="none" opacity="0.1"></rect><path id="패스_16" data-name="패스 16" d="M13.5,2H12V1a1,1,0,0,0-2,0V2H6V1A1,1,0,0,0,4,1V2H2.5a2,2,0,0,0-2,2V14a2,2,0,0,0,2,2h11a2,2,0,0,0,2-2V4A2,2,0,0,0,13.5,2ZM2.5,4h11V6H2.5Zm0,10V8h11v6Z" fill="#373a3c"></path></g><g id="그룹_1066" data-name="그룹 1066"><rect id="사각형_931" data-name="사각형 931" width="18" height="16" transform="translate(196 0)" fill="#fff" opacity="0"></rect><path id="패스_900" data-name="패스 900" d="M193.831,88.529a.774.774,0,0,1-.532-.21l-5.987-5.592a4.62,4.62,0,0,1-1.632-3.688,4.5,4.5,0,0,1,2.959-4.225,4.588,4.588,0,0,1,5.037,1.271,4.667,4.667,0,0,1,4.6-1.272,4.6,4.6,0,0,1,3.292,3.419,4.549,4.549,0,0,1-1.511,4.477l-4.339,4.275-1.34,1.321a.779.779,0,0,1-.545.224Zm-3.595-12.466a2.993,2.993,0,0,0-3.006,2.974,3.1,3.1,0,0,0,1.162,2.589l5.424,5.07,5.143-5.07a3.034,3.034,0,0,0,1.162-2.558,2.978,2.978,0,0,0-2.351-2.934,3.014,3.014,0,0,0-3.389,1.67.779.779,0,0,1-1.41,0,3.017,3.017,0,0,0-2.734-1.74Z" transform="translate(11.318 -73.531)" fill="#ff5644"></path><path id="패스_901" data-name="패스 901" d="M198.907,601.182a.86.86,0,0,1-.614-.261l-5.174-5.272a3.947,3.947,0,0,1,0-5.506,3.791,3.791,0,0,1,5.43,0l.357.364.356-.363a3.791,3.791,0,0,1,5.432,0,3.947,3.947,0,0,1,0,5.506l-3.072,3.133c-.565.574-2.1,2.141-2.1,2.141a.855.855,0,0,1-.614.261Z" transform="translate(6.188 -587.372)" fill="#ff5644"></path></g><g id="그룹_1064" data-name="그룹 1064" transform="translate(-136 -1.032)"><rect id="사각형_931-2" data-name="사각형 931" width="18" height="16" transform="translate(314 1.032)" fill="#fff" opacity="0"></rect><path id="패스_900-2" data-name="패스 900" d="M193.831,88.529a.774.774,0,0,1-.532-.21l-5.987-5.592a4.62,4.62,0,0,1-1.632-3.688,4.5,4.5,0,0,1,2.959-4.225,4.588,4.588,0,0,1,5.037,1.271,4.667,4.667,0,0,1,4.6-1.272,4.6,4.6,0,0,1,3.292,3.419,4.549,4.549,0,0,1-1.511,4.477l-4.339,4.275-1.34,1.321a.779.779,0,0,1-.545.224Zm-3.595-12.466a2.993,2.993,0,0,0-3.006,2.974,3.1,3.1,0,0,0,1.162,2.589l5.424,5.07,5.143-5.07a3.034,3.034,0,0,0,1.162-2.558,2.978,2.978,0,0,0-2.351-2.934,3.014,3.014,0,0,0-3.389,1.67.779.779,0,0,1-1.41,0,3.017,3.017,0,0,0-2.734-1.74Z" transform="translate(129.318 -72.499)" fill="#373a3c"></path></g></g><g id="그룹_1067" data-name="그룹 1067" transform="translate(-2 -2)"><rect id="사각형_932" data-name="사각형 932" width="24" height="24" transform="translate(218 2)" fill="#777" opacity="0"></rect><path id="패스_589" data-name="패스 589" d="M260.437,74.531A5.892,5.892,0,0,0,256,76.56a5.876,5.876,0,0,0-10.318,3.853,6.062,6.062,0,0,0,2.106,4.814l7.726,7.3a1,1,0,0,0,1.393-.018l7.325-7.306a6.088,6.088,0,0,0-3.795-10.676Z" transform="translate(-26 -69)" fill="#ff5644"></path></g></g><g id="그룹_1068" data-name="그룹 1068"><rect id="사각형_934" data-name="사각형 934" width="18" height="18" transform="translate(242)" fill="#1e1e1e" opacity="0"></rect><g id="ico_x16_func_like_off" data-name="ico / x16 / func / like_off" transform="translate(243 1)"><rect id="are_16" width="16" height="16" transform="translate(0.001)" fill="none" opacity="0.1"></rect><g id="ico_like" transform="translate(-192.003 -588)" fill="none"><path d="M200,603a1,1,0,0,1-.711-.3l-5.991-6.058a4.511,4.511,0,0,1,0-6.328,4.412,4.412,0,0,1,6.288,0l.413.418.412-.417a4.414,4.414,0,0,1,6.29,0,4.511,4.511,0,0,1,0,6.328l-3.557,3.6c-.655.66-2.433,2.46-2.433,2.46a.994.994,0,0,1-.711.3Z" stroke="none"></path><path d="M 199.9993438720703 601.2880859375 C 200.5538787841797 600.7268676757813 201.6093902587891 599.6588745117188 202.0774230957031 599.187255859375 L 205.6351623535156 595.5895385742188 C 206.7867736816406 594.4266357421875 206.7872314453125 592.5348510742188 205.6350708007813 591.3713989257813 C 205.0797729492188 590.8094482421875 204.3417816162109 590.5 203.5570068359375 590.5 C 202.7742156982422 590.5 202.0355377197266 590.8101196289063 201.4790344238281 591.3712768554688 L 201.0670318603516 591.7882690429688 L 199.9999542236328 592.8682861328125 L 198.9329376220703 591.7882080078125 L 198.5219879150391 591.3722534179688 C 197.964111328125 590.8097534179688 197.2257843017578 590.5 196.4429931640625 590.5 C 195.658203125 590.5 194.9207763671875 590.8092041015625 194.3645172119141 591.372802734375 C 193.2130737304688 592.5348510742188 193.2129058837891 594.4266357421875 194.3645324707031 595.5902709960938 L 199.9993438720703 601.2880859375 M 200 603 C 199.7330017089844 603 199.4770050048828 602.8930053710938 199.2890014648438 602.7030029296875 L 193.2980041503906 596.64501953125 C 191.5709991455078 594.9000244140625 191.5709991455078 592.0609741210938 193.2989959716797 590.3170166015625 C 194.1369934082031 589.468017578125 195.2539978027344 589 196.4429931640625 589 C 197.6289978027344 589 198.7460021972656 589.468017578125 199.5870056152344 590.3159790039063 L 200 590.7340087890625 L 200.4120025634766 590.3170166015625 C 201.2539978027344 589.468017578125 202.3710021972656 589 203.5570068359375 589 C 204.7460021972656 589 205.8630065917969 589.468017578125 206.7019958496094 590.3170166015625 C 208.4290008544922 592.0609741210938 208.4290008544922 594.9000244140625 206.7010040283203 596.64501953125 L 203.1439971923828 600.2420043945313 C 202.4889984130859 600.9019775390625 200.7109985351563 602.7020263671875 200.7109985351563 602.7020263671875 C 200.5240020751953 602.8930053710938 200.2680053710938 603 200 603 Z" stroke="none" fill="#fff"></path></g></g></g></g><g id="ico_like_24x_2s" transform="translate(262)"><rect id="area_24" width="24" height="24" fill="#e6230a" opacity="0"></rect><path id="패스_534" data-name="패스 534" d="M196.2,92.805a.993.993,0,0,1-.687-.274l-7.726-7.3a6.062,6.062,0,0,1-2.106-4.814A5.876,5.876,0,0,1,196,76.56a5.978,5.978,0,1,1,8.232,8.647l-7.325,7.306A1,1,0,0,1,196.2,92.805Zm-4.639-16.274a3.885,3.885,0,0,0-3.88,3.882,4.073,4.073,0,0,0,1.5,3.38l7,6.618,6.637-6.619a3.979,3.979,0,0,0,1.5-3.339,3.878,3.878,0,0,0-7.408-1.65,1,1,0,0,1-1.82,0A3.891,3.891,0,0,0,191.562,76.531Z" transform="translate(-184 -72)" fill="#373a3c"></path></g></svg>