<svg xmlns="http://www.w3.org/2000/svg" width="96" height="96" viewBox="0 0 96 96">
    <defs>
        <filter id="패스_1185" width="96" height="96" x="0" y="0" filterUnits="userSpaceOnUse">
            <feOffset dy="3"/>
            <feGaussianBlur result="blur" stdDeviation="3"/>
            <feFlood flood-opacity=".161"/>
            <feComposite in2="blur" operator="in"/>
            <feComposite in="SourceGraphic"/>
        </filter>
        <style>
            .cls-3{fill:#4d6ee4}
        </style>
    </defs>
    <g id="ico_bubble" transform="translate(-142.001 -361)">
        <g filter="url(#패스_1185)" transform="translate(142 361)">
            <path id="패스_1185-2" fill="#fff" d="M290.786 729.135a38.931 38.931 0 0 0-35.1 55.909l-2.928 16.6c-.423 2.393.7 3.9 2.616 3.9a4.83 4.83 0 0 0 1.649-.318l12.374-4.5a38.993 38.993 0 1 0 21.392-71.59z" opacity="0.98" transform="translate(-242.79 -723.14)"/>
        </g>
        <g id="ico_chatbot_28x" transform="translate(-73 -283)">
            <g id="그룹_1869" transform="translate(244 668)">
                <g id="그룹_1869-2" transform="translate(0 -1)">
                    <circle id="타원_114" cx="1.5" cy="1.5" r="1.5" class="cls-3" transform="translate(11.707 22.373)"/>
                    <circle id="타원_115" cx="1.5" cy="1.5" r="1.5" class="cls-3" transform="translate(23.793 22.373)"/>
                    <path id="패스_899" d="M54.308 489.581h-5.846v-2.163a4.385 4.385 0 1 0-2.923 0v2.163h-5.847A11.651 11.651 0 0 0 28 501.162v5.79a11.651 11.651 0 0 0 11.692 11.581h14.616a1.448 1.448 0 1 0 0-2.9H39.692a8.737 8.737 0 0 1-8.769-8.686v-5.79a8.737 8.737 0 0 1 8.769-8.686h14.616a8.737 8.737 0 0 1 8.769 8.686v5.79a1.462 1.462 0 0 0 2.923 0v-5.79a11.651 11.651 0 0 0-11.692-11.576zM47 481.9a1.448 1.448 0 1 1-1.462 1.448A1.456 1.456 0 0 1 47 481.9z" class="cls-3" transform="translate(-28 -478)"/>
                    <path id="패스_900" fill="#4d6ee4" stroke="#4d6ee4" stroke-width="0.5px" d="M41 499.9a5.208 5.208 0 0 0 3.636-1.263.9.9 0 0 0 0-1.259.905.905 0 0 0-1.268-.024 4.154 4.154 0 0 1-4.737.009.9.9 0 0 0-1.272 1.274A5.208 5.208 0 0 0 41 499.9z" transform="translate(-22.001 -468.501)"/>
                </g>
                <circle id="타원_1623" cx="2.5" cy="2.5" r="2.5" fill="#fbb800" transform="translate(33 35.533)"/>
            </g>
        </g>
    </g>
</svg>
