<svg xmlns="http://www.w3.org/2000/svg" width="260" height="26.064" viewBox="0 0 260 26.064"><g transform="translate(0 -0.064)"><rect width="24" height="24" transform="translate(0 0.064)" fill="#b9bcc0" opacity="0"/><path d="M198.523,187.109l6.4-6.4a1,1,0,1,0-1.414-1.414l-6.4,6.4-6.4-6.4a1,1,0,1,0-1.414,1.414l6.4,6.4-6.4,6.4a1,1,0,1,0,1.414,1.414l6.4-6.4,6.4,6.4a1,1,0,1,0,1.414-1.414Z" transform="translate(-185 -174.936)" fill="#b9bcc0"/></g><g transform="translate(0 -0.064)"><g transform="translate(26 0.064)"><rect width="24" height="24" fill="none"/><path d="M341.918,167.723l-1.983-1.762-5.035-4.476a2.311,2.311,0,0,0-2.988,0l-5.035,4.474c-.821.731-1.714,1.524-1.983,1.763a1.95,1.95,0,0,0-.488,1.279v8.935a2.007,2.007,0,0,0,2,2h14a2.006,2.006,0,0,0,2-2V169.09a2.086,2.086,0,0,0-.488-1.367Zm-1.512,4.3v5.912h-6v-3a1,1,0,0,0-2,0v3h-6v-8.88l.007-.007,1.794-1.594,5.037-4.476a.282.282,0,0,1,.164-.042.276.276,0,0,1,.165.043l5.035,4.476.947.84.847.754a.264.264,0,0,0,.006.04Z" transform="translate(-321.406 -157.937)" fill="#b9bcc0"/></g></g><g transform="translate(0 -0.064)"><rect width="24" height="24" transform="translate(51 0.064)" fill="#fff" opacity="0"/><g transform="translate(52 -88.936)"><path d="M5.156,98.723h-1.7A7.564,7.564,0,0,1,18.1,96.658a.86.86,0,1,0,1.612-.6A9.282,9.282,0,0,0,1.72,99.184,3.439,3.439,0,0,0,0,102.16v2.922a3.441,3.441,0,0,0,3.438,3.437H5.156a.859.859,0,0,0,.859-.859V99.582a.859.859,0,0,0-.859-.859ZM4.3,106.8H3.438a1.721,1.721,0,0,1-1.719-1.719V102.16a1.721,1.721,0,0,1,1.719-1.719H4.3Z" fill="#b9bcc0"/><path d="M267.468,332.648H265.75a.859.859,0,0,0-.859.859v8.98a.86.86,0,0,1-.859.859H261.41v.027a1.719,1.719,0,1,0,0,1.664v.027h2.621a2.581,2.581,0,0,0,2.578-2.578v-.043h.859a3.441,3.441,0,0,0,3.438-3.437v-2.922A3.441,3.441,0,0,0,267.468,332.648Zm1.719,6.359a1.721,1.721,0,0,1-1.719,1.719h-.859v-6.359h.859a1.721,1.721,0,0,1,1.719,1.719Z" transform="translate(-248.906 -233.925)" fill="#b9bcc0"/></g></g><g transform="translate(78)"><rect width="25" height="20" transform="translate(101)" fill="#fff" opacity="0"/><g transform="translate(-7 -8)"><g transform="translate(-120.761 -501.193)"><g transform="translate(229.261 508.693)"><line x2="20" transform="translate(2 2.5)" fill="none" stroke="#373a3c" stroke-linecap="round" stroke-miterlimit="10" stroke-width="2"/><line x2="20" transform="translate(2 18.5)" fill="none" stroke="#373a3c" stroke-linecap="round" stroke-miterlimit="10" stroke-width="2"/><line x2="20" transform="translate(2 10.5)" fill="none" stroke="#373a3c" stroke-linecap="round" stroke-miterlimit="10" stroke-width="2"/></g></g></g></g><g transform="translate(78)"><rect width="26" height="24" transform="translate(128)" fill="#fff" opacity="0"/><g transform="translate(-99.761 -505.693)"><g transform="translate(228.761 507.693)"><g transform="translate(0)"><path d="M23.921,32.457A.891.891,0,0,0,23,32.333L.866,41.99a1.447,1.447,0,0,0,.159,2.71l5.456,1.651A.894.894,0,1,0,7,44.64L2.428,43.258l17.289-7.544L9.524,45.9a.07.07,0,0,1-.02.02l-.04.04a.151.151,0,0,0-.025.035c0,.01-.015.02-.02.03a.015.015,0,0,0,0,.01c-.01.01-.015.025-.025.035a.363.363,0,0,0-.025.045.182.182,0,0,0-.015.035.463.463,0,0,1-.025.05.071.071,0,0,0-.01.03c0,.02-.015.035-.02.055s0,.02-.01.03l-.015.06v.03a.242.242,0,0,0,0,.06v.114l.269,5.1a1.377,1.377,0,0,0,2.4.85l2.043-2.258,4.025,2.79a1.449,1.449,0,0,0,2.242-.89l3.99-18.827a.9.9,0,0,0-.321-.887ZM11.269,50.6l-.119-2.292,1.347.935Zm7.33.691L11.547,46.4,21.8,36.162Z" transform="translate(0 -32.256)" fill="#373a3c"/></g></g></g></g><g transform="translate(-27)"><rect width="24" height="24" transform="translate(156)" fill="#fff" opacity="0"/><g transform="translate(157 -89)"><path d="M5.156,98.723h-1.7A7.564,7.564,0,0,1,18.1,96.658a.86.86,0,1,0,1.612-.6A9.282,9.282,0,0,0,1.72,99.184,3.439,3.439,0,0,0,0,102.16v2.922a3.441,3.441,0,0,0,3.438,3.437H5.156a.859.859,0,0,0,.859-.859V99.582a.859.859,0,0,0-.859-.859ZM4.3,106.8H3.438a1.721,1.721,0,0,1-1.719-1.719V102.16a1.721,1.721,0,0,1,1.719-1.719H4.3Z" fill="#373a3c"/><path d="M267.468,332.648H265.75a.859.859,0,0,0-.859.859v8.98a.86.86,0,0,1-.859.859H261.41v.027a1.719,1.719,0,1,0,0,1.664v.027h2.621a2.581,2.581,0,0,0,2.578-2.578v-.043h.859a3.441,3.441,0,0,0,3.438-3.437v-2.922A3.441,3.441,0,0,0,267.468,332.648Zm1.719,6.359a1.721,1.721,0,0,1-1.719,1.719h-.859v-6.359h.859a1.721,1.721,0,0,1,1.719,1.719Z" transform="translate(-248.906 -233.925)" fill="#373a3c"/></g></g><rect width="24" height="26" transform="translate(77 0.064)" fill="#fff" opacity="0"/><g transform="translate(78 1.064)"><circle cx="1.25" cy="1.25" r="1.25" transform="translate(6.431 12.333)" fill="#b9bcc0"/><circle cx="1.25" cy="1.25" r="1.25" transform="translate(13.069 12.333)" fill="#b9bcc0"/><path d="M43.231,484.7H39.846v-1.831a2.539,2.539,0,1,0-1.692,0V484.7H34.769A6.745,6.745,0,0,0,28,491.41v3.352a6.745,6.745,0,0,0,6.769,6.7h8.462a.838.838,0,0,0,0-1.676H34.769a5.058,5.058,0,0,1-5.077-5.029V491.41a5.058,5.058,0,0,1,5.077-5.029h8.462a5.058,5.058,0,0,1,5.077,5.029v3.352a.846.846,0,1,0,1.692,0V491.41A6.745,6.745,0,0,0,43.231,484.7ZM39,479.676a.838.838,0,1,1-.846.838.838.838,0,0,1,.846-.838Z" transform="translate(-28 -478)" fill="#b9bcc0"/><path d="M41,499.9a5.208,5.208,0,0,0,3.636-1.263.9.9,0,0,0-1.268-1.283,4.154,4.154,0,0,1-4.737.009.9.9,0,1,0-1.272,1.274A5.208,5.208,0,0,0,41,499.9Z" transform="translate(-30 -481.436)" fill="#b9bcc0"/><circle cx="1.5" cy="1.5" r="1.5" transform="translate(18 19.467)" fill="#b9bcc0"/></g><rect width="24" height="26" transform="translate(103 0.064)" fill="#fff" opacity="0"/><g transform="translate(104 1.064)"><circle cx="1.25" cy="1.25" r="1.25" transform="translate(6.431 12.333)" fill="#373a3c"/><circle cx="1.25" cy="1.25" r="1.25" transform="translate(13.069 12.333)" fill="#373a3c"/><path d="M43.231,484.7H39.846v-1.831a2.539,2.539,0,1,0-1.692,0V484.7H34.769A6.745,6.745,0,0,0,28,491.41v3.352a6.745,6.745,0,0,0,6.769,6.7h8.462a.838.838,0,0,0,0-1.676H34.769a5.058,5.058,0,0,1-5.077-5.029V491.41a5.058,5.058,0,0,1,5.077-5.029h8.462a5.058,5.058,0,0,1,5.077,5.029v3.352a.846.846,0,1,0,1.692,0V491.41A6.745,6.745,0,0,0,43.231,484.7ZM39,479.676a.838.838,0,1,1-.846.838.838.838,0,0,1,.846-.838Z" transform="translate(-28 -478)" fill="#373a3c"/><path d="M41,499.9a5.208,5.208,0,0,0,3.636-1.263.9.9,0,0,0-1.268-1.283,4.154,4.154,0,0,1-4.737.009.9.9,0,1,0-1.272,1.274A5.208,5.208,0,0,0,41,499.9Z" transform="translate(-30 -481.436)" fill="#373a3c"/><circle cx="1.5" cy="1.5" r="1.5" transform="translate(18 19.467)" fill="#4d6ee4"/></g><g transform="translate(78)"><rect width="22" height="22" transform="translate(77)" fill="#e3e3e3" opacity="0"/><g transform="translate(79 1)"><circle cx="1" cy="1" r="1" transform="translate(5 9.824)" fill="#fff"/><circle cx="1" cy="1" r="1" transform="translate(10.276 9.824)" fill="#fff"/><path d="M40.462,483.486h-2.77v-1.5a2.077,2.077,0,1,0-1.385,0v1.5H33.538A5.519,5.519,0,0,0,28,488.971v2.743a5.519,5.519,0,0,0,5.538,5.486h6.923a.686.686,0,1,0,0-1.371H33.538a4.138,4.138,0,0,1-4.154-4.114v-2.743a4.138,4.138,0,0,1,4.154-4.114h6.923a4.138,4.138,0,0,1,4.154,4.114v2.743a.693.693,0,0,0,1.385,0v-2.743a5.519,5.519,0,0,0-5.538-5.486ZM37,479.371a.686.686,0,1,1-.692.686.686.686,0,0,1,.692-.686Z" transform="translate(-28 -478)" fill="#fff"/><path d="M39.6,498.9a3.34,3.34,0,0,0,2.332-.81.574.574,0,0,0,0-.807.58.58,0,0,0-.813-.015,2.663,2.663,0,0,1-3.038.006.577.577,0,1,0-.816.817,3.34,3.34,0,0,0,2.335.809Z" transform="translate(-31.1 -483.67)" fill="#fff"/><circle cx="1" cy="1" r="1" transform="translate(15 16.2)" fill="#fff"/></g></g><rect width="26" height="24" transform="translate(234)" fill="#fff" opacity="0"/><g transform="translate(6.239 -505.693)"><g transform="translate(228.761 475.437)"><g transform="translate(0 32.257)"><path d="M23.936,32.457a.892.892,0,0,0-.925-.124L.867,41.99a1.447,1.447,0,0,0,.159,2.71l5.46,1.651A.894.894,0,1,0,7,44.64l-4.57-1.382,17.3-7.544L9.53,45.9s-.01.015-.02.02l-.04.04a.151.151,0,0,0-.025.035c0,.01-.015.02-.02.03a.015.015,0,0,0,0,.01c-.01.01-.015.025-.025.035s-.015.03-.025.045-.01.025-.015.035-.015.035-.025.05a.071.071,0,0,0-.01.03c0,.02-.015.035-.02.055s0,.02-.01.03l-.015.06c0,.01,0,.02,0,.03a.242.242,0,0,0,0,.06v.114l.269,5.1a1.378,1.378,0,0,0,2.4.85l2.044-2.258,4.028,2.79a1.442,1.442,0,0,0,1.363.154,1.441,1.441,0,0,0,.88-1.044l3.993-18.827A.9.9,0,0,0,23.936,32.457ZM11.276,50.6l-.119-2.292,1.348.935Zm7.335.691L11.554,46.4,21.813,36.162Z" transform="translate(0 -32.257)" fill="#4d6ee4"/></g></g></g></svg>